<svg width="192" height="96" viewBox="0 0 192 96" fill="none" xmlns="http://www.w3.org/2000/svg">
<path d="M8.79479 95L9.99349 86.6099L11.1922 82.7376L12.3909 78.8653L13.5896 74.9929V72.734L11.1922 68.8617L8.79479 64.0213L6.99674 59.5035L5.49837 54.0177L4.59935 49.1773L4 44.3369V38.8511V34.3333V30.461V26.9113V22.7163L4.59935 18.844L5.49837 15.2943L6.39739 11.0993L6.99674 8.51773L7.89577 5.93617L8.79479 4.64539L10.2932 4H12.3909L15.987 4.64539L20.1824 5.93617L24.3779 6.90426L29.772 8.51773L33.3681 9.80851L38.7622 12.0674L42.658 14.3262L46.8534 16.5851L50.7492 19.4894L54.9446 22.7163L57.0423 24.9752L58.241 26.9113L61.5375 25.9433L64.8339 24.9752L68.7296 23.6844L75.0228 22.0709L81.0163 20.7801H87.9088H95.4007H101.694H106.788L114.28 22.0709L122.371 23.6844L128.365 25.9433L132.261 26.9113L134.358 24.9752L137.055 22.0709L140.352 19.4894L144.547 16.5851L149.941 13.6809L154.436 10.7766L158.632 9.48582L164.026 7.54965L168.821 6.25887L171.818 4.96809L174.814 4H179.01H182.007L184.404 4.96809L185.902 7.54965L186.202 11.422L187.101 15.9397L188 22.0709V26.9113V32.0745V37.2376V41.7553L187.101 47.8865L185.902 54.3404L184.404 59.5035L182.606 64.344L180.208 68.8617L177.811 71.766L179.01 75.3156L180.208 78.8653L182.007 83.0603L182.606 87.2553V95" stroke="white" stroke-width="7"/>
</svg>
